<?xml version="1.0" ?><svg height="512" preserveAspectRatio="xMidYMid" viewBox="0 0 512 512" width="512" xmlns="http://www.w3.org/2000/svg" xmlns:xlink="http://www.w3.org/1999/xlink"><defs><style>
      .cls-12 {
        fill: #fff;
      }

      .cls-22 {
        fill: #3b589e;
      }

      .cls-22, .cls-32 {
        fill-rule: evenodd;
      }

      .cls-32 {
        fill: #000;
        opacity: 0.1;
      }
    </style></defs><circle class="cls-12" cx="256" cy="256" r="256"/><path class="cls-22" d="M318.216,504.370 L318.880,308.624 L373.750,308.624 L381.319,240.446 L318.880,240.446 C318.045,183.651 320.370,174.011 339.693,168.482 C363.127,169.287 386.995,168.482 386.995,168.482 L386.995,107.879 C323.699,87.180 244.053,99.540 248.872,240.446 L194.001,240.446 L194.001,308.624 L246.980,308.624 L246.730,510.375 L277.644,511.081 C270.507,511.678 263.292,512.000 256.000,512.000 C114.615,512.000 0.000,397.385 0.000,256.000 C0.000,114.615 114.615,0.000 256.000,0.000 C397.385,0.000 512.000,114.615 512.000,256.000 C512.000,375.925 429.532,476.575 318.216,504.370 Z"/><path class="cls-32" d="M436.999,75.012 C536.959,174.972 536.959,337.039 436.999,436.999 C337.039,536.959 174.972,536.959 75.012,436.999 "/></svg>