<?xml version="1.0" ?><svg height="512" preserveAspectRatio="xMidYMid" viewBox="0 0 512 512" width="512" xmlns="http://www.w3.org/2000/svg" xmlns:xlink="http://www.w3.org/1999/xlink"><defs><style>
      .cls-13 {
        fill: #fff;
      }

      .cls-23 {
        fill: #4c75a3;
      }

      .cls-23, .cls-33 {
        fill-rule: evenodd;
      }

      .cls-33 {
        fill: #000;
        opacity: 0.1;
      }
    </style></defs><circle class="cls-13" cx="256" cy="256" r="256"/><path class="cls-23" d="M256.000,512.000 C114.615,512.000 0.000,397.385 0.000,256.000 C0.000,114.615 114.615,0.000 256.000,0.000 C397.385,0.000 512.000,114.615 512.000,256.000 C512.000,397.385 397.385,512.000 256.000,512.000 ZM408.262,177.567 C403.684,173.703 386.026,173.857 368.512,173.953 C350.612,174.051 332.856,174.151 328.761,175.760 C324.960,177.254 316.396,197.876 305.273,219.138 C292.694,243.182 277.155,266.285 267.329,266.131 C254.595,265.932 257.541,226.412 258.294,197.449 C258.795,178.216 255.676,172.218 252.874,170.338 C246.074,165.776 227.578,161.301 227.578,161.301 C227.578,161.301 172.273,157.105 164.339,181.182 C174.857,182.563 193.040,179.199 186.021,253.479 C185.680,257.086 177.550,287.689 151.691,246.250 C145.303,236.013 120.484,174.187 111.941,173.953 C83.257,173.167 55.131,171.982 45.087,177.567 C35.934,182.658 57.476,225.400 93.872,282.398 C123.635,329.009 155.156,365.423 209.510,374.577 C219.663,375.592 246.438,376.804 254.681,372.769 C260.433,369.953 253.444,329.531 272.749,325.776 C281.429,324.088 314.410,367.757 326.954,372.769 C334.564,375.809 351.340,376.938 368.512,376.384 C387.089,375.784 408.036,378.005 410.069,365.539 C414.615,337.668 354.077,301.429 352.250,284.205 C350.940,271.850 374.394,249.074 386.580,231.790 C401.429,210.730 417.520,185.382 408.262,177.567 Z"/><path class="cls-33" d="M436.999,75.012 C536.959,174.972 536.959,337.039 436.999,436.999 C337.039,536.959 174.972,536.959 75.012,436.999 "/></svg>